<?xml version="1.0" encoding="UTF-8"?>
<!-- Generator: Adobe Illustrator 18.1.1, SVG Export Plug-In . SVG Version: 6.00 Build 0)  -->
<svg version="1.1" id="Vektor" xmlns="http://www.w3.org/2000/svg" xmlns:xlink="http://www.w3.org/1999/xlink" x="0px" y="0px" viewBox="-68 109.3 470 343" enable-background="new -68 109.3 470 343" xml:space="preserve">
  <script type="text/ecmascript" xlink:href="../script/conf.js"></script>
  
  <script>
	  function setCores(id){
		parent.cores = id;
	  }
  </script>
  
  <defs>
	  <style>
		path:hover { opacity: 0.5; }
	  </style>
  </defs>

 
	<g id="Ebene_2">
		<path fill="#ffffff" d="M185.4,149c5.4,3.1,9.8,8.6,14.1,12.9c12.3,12.3,22.7,26.2,32.2,41.4c18.4,29.4,31.7,62.6,42.8,99.7    c3.5,11.5,5.3,23.3,8,35.6c2.4,10.9,3.1,22.8,5.1,34.6c0.3,4.5,0.6,9,0.9,13.5c0.8,5.3,0.5,11.5,0.5,17.4c0,2.8,0,5.6,0,8.3    c-0.3,4.8-1,10.1-1.4,14.8c-0.7,4.9-1.2,13.4-2.5,14.1c-1.1,0.1-2,0.4-2.6,0.6c-0.7-3.1-1.5-6.2-2.2-9.4    c-3.2-8.4-4.7-16.8-8.2-24.9c-1.1-2.1-2.3-4.2-3.4-6.3c-1.6-3.7-2-6.9-3.6-10.2c-1-1.5-1.9-3-2.9-4.4c-0.7-2.2-1.4-4.3-2-6.5    c-2.5-4.9-4.6-8.1-6.8-13.6c-1.4-2.6-2.8-5.1-4.3-7.7c-0.7-0.9-1.5-1.7-2.2-2.6c-0.3-1.6-0.6-3.3-0.9-4.9    c-0.8-3.3-2.1-7.1-3.1-10.2c0.1-2.2,0.2-4.4,0.3-6.6c0.2-3.2-1.4-6.9-2-9.9c-0.6-2.9,0.5-6.3-0.2-9.2c-0.6-2.5-1.4-4.3-2-6.5    c0.1-1.8,0.2-3.5,0.3-5.3c-0.4-3.2-1.7-6.9-2.7-9.5c-0.5-1.4,0.4-5.6-0.2-8c-0.6-2.3-1.7-4.4-2.4-6.1c0-2,0-4.1,0-6.1    c0.1-2.6-2-5.5-2.7-7.3c-0.1-1.9-0.1-3.9-0.2-5.8c-0.7-2.7-2-5.1-2.9-7.2c-0.2-2.3-0.3-4.5-0.5-6.8c-0.6-2.1-2.2-4.1-2.7-5.8    c-0.6-1.9,0.1-4-0.5-6c-0.6-2-2-3.6-2.7-5.1c-0.1-1.6-0.2-3.2-0.3-4.8c-0.6-2.4-2.5-4.4-3.1-6.3c-0.6-2.2-0.1-4-1-6.3    c-0.5-1.3-1.6-1.9-2.2-2.9c-0.1-1.2-0.2-2.5-0.3-3.7c-0.7-2.4-2-3.8-3.1-5.5c-0.2-1.5-0.5-3.1-0.7-4.6c-0.6-1.7-2.2-2.8-2.9-4.1    c-0.2-1.4-0.5-2.8-0.7-4.3c-0.6-1.4-2.2-2.5-2.7-3.6c-0.2-1.1-0.3-2.3-0.5-3.4c-0.7-1.7-1.8-2.2-2.7-3.4c-0.3-1.3-0.6-2.6-0.9-3.9    c-0.6-1.3-1.8-1.7-2.6-2.7c-0.3-1.3-0.7-2.6-1-3.9c-0.5-0.9-1.7-1.3-2.2-2c-0.2-0.9-0.3-1.7-0.5-2.6c-0.6-1.4-2-1.9-2.7-2.9    c-0.8-1.2-0.7-2.7-1.5-3.7C189.2,154,185.7,150.4,185.4,149z"/>
		<path fill="#ffffff" d="M17.9,200c3.1,4.3,6.1,8.5,9.2,12.8c-2.2,7.3-4.7,14.7-7,22.3c-1,4.6-1.9,9.2-2.9,13.8c-0.2,0-0.5,0-0.7,0    c-2.2-7.2-4.5-15.2-6.6-22.9c-0.9-3.3-2.4-7.5-0.7-11.2C11.5,209.8,15.4,204.9,17.9,200z"/>
	</g>
	<g id="Ebene_3">
		<path onmousedown="sa();" fill="#c1cc26" d="M-60.2,185.5c1.6,0.5,3.5,4.1,2.4,6.3c-0.4,0.7-0.9,0.9-1,1.4c2.2,1,5.3,5.7,3.6,8.9c-0.5,0-0.9,0-1.4,0    c5.5,12.2,14.3,27.7,24,35.4c1.8,1.6,3.6,3.2,5.5,4.8c2.5,1.7,5,3.4,7.5,5.1c0,0.1,0,0.1,0,0.2c-0.1,0-0.1,0-0.2,0    c-15.4-7.8-25-22.5-33.7-37.1c-2.7-4.5-7.9-13.4-8.3-19.4c0.4,0.3,0.8,0.6,1.2,0.9c-0.3-1.4-0.7-2.7-1-4.1    C-61.2,187-60.7,186.3-60.2,185.5z"/>
		<path onmousedown="sa();" fill="#c1cc26" d="M282.7,441.8c-11.2,2.4-21.9,4.9-33.2,7.4c-3.1,0.8-11.4,2.5-14.3,3.2c-2.7-1-5.7-1.7-8.3-2.7    c-5.2-2-10.3-4-15.5-6c-7.3-4.2-14.2-9.4-20.8-14.5c-3.5-3.2-6.9-6.4-10.4-9.5c-4.7-3.8-9.3-8.4-13.1-13.1c-2.6-2.7-5.2-5.3-7.8-8    c-7.6-8.9-15.1-17.8-22.7-26.8c-19.3-25.5-37.9-51.4-56.2-78.2c0.1-0.1,0.1-0.2,0.2-0.3c1.5-3,5.7-3.3,8.3-5.3    c2.2-1.6,4-5.6,4.9-8.3c1.1-3.4,1-6.8,0.2-10.1c-0.9-3.5,0.5-6-0.3-9.4c-0.5-2.1-1.7-4.5-2.2-6.1c0-1.7,0-3.4,0-5.1    c-0.4-1.6-0.8-3.2-1.2-4.8c-0.1-1.5-1.1-2.5-1.5-3.7c-0.2-2.4-0.5-4.9-0.7-7.3c-0.5-1.9-1.6-4-2.2-5.5c-0.7-1.5-0.1-3.2-0.3-4.6    c-0.6-2.8-2-5.5-2.9-7.7c-1-2.4-0.7-6.3-1.5-8.7c-0.3-0.8-1.2-1.7-1.5-2.4c-0.5-1.1-0.4-2.8-0.3-3.7c0.1-2.3-2.1-5.1-2.9-6.6    c-1.2-2.3-0.8-5.6-1.7-7.8c-0.3-0.8-1.4-1.3-1.7-1.9c-0.5-1,0.1-2.7-0.3-4.1c-0.5-1.2-1-2.5-1.5-3.7c-0.5-0.4-0.9-0.8-1.4-1.2    c-0.4-1.1,0.1-2.4-0.3-3.7c-0.5-1.6-1.9-2.7-2.6-3.9c-1-1.7-0.6-4.2-1.4-5.8c-0.3-0.7-1.1-0.9-1.5-1.4c-0.3-1.5-0.7-3-1-4.4    c-0.5-1.2-1.5-1.4-2.2-2.2c-0.5-0.6-0.4-3.4-0.9-4.4c-0.4-0.9-1.3-0.9-1.9-1.5c-0.3-1.2-0.6-2.5-0.9-3.7c-0.4-0.8-1.4-1.1-1.9-1.7    c-0.2-0.9-0.3-1.7-0.5-2.6c-0.5-1.4-1.5-1.8-2.4-2.7c-1.2-3-2.6-5.7-5.1-7.8c-0.3-0.9-0.6-1.8-0.9-2.7c-0.4-0.6-0.9-0.2-1.5-0.7    c-0.4-1-0.8-1.9-1.2-2.9c-0.4-0.1-0.8-0.1-1.2-0.2c-0.4-0.9-0.8-1.7-1.2-2.6c-0.4,0-0.8,0-1.2,0c-0.3-0.6-0.6-1.2-0.9-1.9    c-0.5-0.1-0.9-0.1-1.4-0.2c-0.5-0.4-0.2-1.5-0.9-1.9c-0.8-0.6-8.7-4.2-8.7-4.3c0.3,0,0.6,0,0.9,0c12.6,1.2,25.2,2.4,37.8,3.6    c23.7,2.9,47.5,5.8,71.2,8.7c14.1,3.8,26,9,36.5,16.4c4.4,3.1,10.3,6.7,13.3,11.1c0.3,0.8,0.6,1.6,0.9,2.4c0.6,1,2.1,1.6,2.7,2.9    c0.2,0.7,0.3,1.5,0.5,2.2c0.5,0.6,1.4,0.6,1.9,1.4c0.5,1.4,0.9,2.7,1.4,4.1c0.7,0.8,1.7,1,2.2,2c0.3,1.2,0.7,2.5,1,3.7    c0.9,1.3,2.2,2,2.9,3.7c0.2,1,0.3,1.9,0.5,2.9c0.7,0.9,1.8,1.5,2.4,2.7c0.6,1.2,0.1,2.9,0.9,4.3c0.7,1.4,2.4,2.6,3.1,4.4    c0.1,1.1,0.2,2.3,0.3,3.4c0.8,1.3,2.2,2.4,2.9,4.1c0.2,1.5,0.5,3,0.7,4.4c0.8,1.5,2.3,2.9,2.9,4.8c0.2,1.5,0.3,3,0.5,4.4    c0.9,1.6,2.3,3,2.9,5.1c0.1,1.5,0.2,3,0.3,4.4c0.5,1.4,2.1,3,2.7,4.8c0.2,2,0.5,4,0.7,6c0.5,1.5,2.1,3.4,2.7,5.3    c0.7,2.2-0.2,3.9,0.5,6.1c0.6,2,2.3,4,2.9,6.6c0.1,1.9,0.2,3.9,0.3,5.8c0.9,2,2.3,4.4,2.9,7.2c0.1,1.9,0.1,3.9,0.2,5.8    c0.8,2.1,2.2,4.6,2.7,7.3c0,2,0,4,0,6c0.3,1.3,1.6,3,2,4.6c0.9,3.1-0.1,6.6,0.5,9.5c0.4,2.2,2,5.4,2.6,8.2c0.4,2-0.8,4.6-0.2,6.8    c0.8,3.1,1.8,6,2.4,9.7c0.3,1.9-0.6,3.9-0.3,5.6c0.3,2.4,1.6,6.1,2,8.5c0.4,2.3-0.7,5.3-0.3,7.5c1,3.5,2,6.9,3.1,10.4    c0.3,1.9,0.7,3.7,1,5.6c0.8,1.9,4.3,6.1,5.6,8.3c0.7,2.2,1.5,4.4,2.2,6.6c1,1.4,2,2.7,3.1,4.1c2,3.3,2.7,6.5,4.1,10.6    c1.5,2.6,3.1,5.2,4.6,7.8c1.1,2.4,1.1,4.5,2,7.2c1.4,2.6,2.7,5.2,4.1,7.8c1,2.3,0.8,4.4,1.7,7c0.9,1.6,1.7,3.3,2.6,4.9    c1.2,2.8,1.2,5.3,2,8.5C280.3,433.5,282.2,437,282.7,441.8z"/>
	</g>
	<g id="Ebene_4">
		<path fill="#c1cc26" d="M-57.1,201.2c0.5,0,1,0,1.5,0c0.1-0.2,0.1-0.3,0.2-0.5c1.3-2.9-2.7-7.2-4.6-7.8c0-0.3,0-0.6,0-0.9    c0.3-0.1,0.7-0.1,1-0.2c0.2-0.1,0.5-0.2,0.7-0.3c1-3.2-1.9-6.7-4.3-7.7c0-0.3,0-0.6,0-0.9c1.9,0.2,2.3-0.1,2.9-1.7    c-0.3-2.5-2.3-4.8-4.3-5.8c0-0.3,0-0.6,0-0.9c0.7,0,1.4,0,2,0c0.9-0.4,1.2-0.9,1.4-2c-1.4-1.9-2.1-3.8-4.3-4.9c0-0.3,0-0.6,0-0.9    c1.2,0.1,1.9,0.4,3.1,0.2c0.3-0.4,0.6-0.8,0.9-1.2c0.5-2.6-3.4-3.8-3.9-6c0.3,0,0.6,0,0.9,0c0.8,0.4,1.7,0.5,2.7,0.3    c0.3-0.3,0.7-0.7,1-1c-1-2.2-3.4-3.5-4.1-5.6c1.5,0.3,2.7,0.9,4.3,0.7c0.3-0.3,0.6-0.6,0.9-0.9c-1-1.6-3.6-3.5-3.9-5.3    c1.7,0.3,3,1.3,4.8,1c0.2-0.2,0.5-0.3,0.7-0.5c-0.1-0.2-0.1-0.3-0.2-0.5c-1.1-1.2-3.1-2.9-3.6-4.4c2,0.3,3.3,1.5,5.5,1.2    c0.1-2.3-3-2.7-3.4-4.9c1.8,0.4,3.7,2.1,5.5,1.7c0.2-0.1,0.3-0.1,0.5-0.2c-0.1-0.1-0.2-0.2-0.3-0.3c-0.7-1.7-2.5-2.1-3.1-3.9    c2,0.7,4,1.5,6,2.2c0.1-0.1,0.1-0.2,0.2-0.3c-1-0.9-2.7-2.2-3.1-3.6c2,0.9,4.1,1.7,6.1,2.6c0-0.1,0-0.1,0-0.2    c-0.8-1-2.2-1.6-2.6-3.1c0.3,0,0.6,0,0.9,0c1.7,0.9,3.4,1.8,5.1,2.7c-0.7-0.9-1.7-1.3-2-2.6c2,0.2,2.8,1.5,4.3,2.2    c1.6,0.8,3.2,0.2,4.6,0.9c4.6,2.1,8,6.2,11.8,9.2c10.9,8.7,19.7,20.9,28.1,32c5,6.7,11.3,13.3,15.3,20.8    c-2.5,4.9-6.4,9.8-8.7,14.8c-1.7,3.7-0.3,7.8,0.7,11.2c0.9,3.6,2.2,7.5,3,11.2c1.1,3.8,2.3,7.6,3.4,11.4c-0.1,0-0.2,0-0.3,0    c-3.7,0.5-7.4,1-11.1,1.5c-4.5,0.6-9,1.2-13.5,1.9c-2.8-1.2-6.1-2.2-8.9-3.5c-13-6.4-21.9-16-29.4-27.9    C-49.5,216.4-56.7,206.6-57.1,201.2z"/>
	</g>
	<g id="Ebene_1">
		<path onmousedown="setCores(2);" fill="#6f3e6d" d="M249.1,373.5c0.4,0,0.8,0,1.2,0c0,0.2,0,0.3,0,0.5c-15.6,4.3-31.1,8.6-46.7,12.9c-4.8,1.2-16.1,3-19.6-0.5    c0.4-5.5,8.1-6.8,12.9-8c9.8-2.4,21.8-1.8,32.9-3.6C235.4,373.9,244.5,375.3,249.1,373.5z"/>
		<path onmousedown="setCores(2);" fill="#6f3e6d" d="M-23.9,109.5c13.9-0.1,28.3-0.4,40.9,1.5c5.6,0.9,12.2,0,16.4,2.4c2.2,1.2,3.8,3.1,6,4.4    c0.3,0.6,0.7,1.2,1,1.9c0.6,0.4,1.3,0.1,1.7,0.7c0.2,0.6,0.3,1.1,0.5,1.7c0.6,0.3,1.1,0.6,1.7,0.9c0.2,0.8,0.5,1.6,0.7,2.4    c0.4,0.4,1.3,0.2,1.7,0.7c0.2,0.9,0.5,1.7,0.7,2.6c0.5,0.3,1,0.6,1.5,0.9c0.4,1.1,0.8,2.2,1.2,3.2c1.5,1.5,2,1.7,2.6,4.4    c2.7,0.3,1.6,3,2.7,4.8c0.4,0.7,1.6,1,2,1.9c0.2,1.2,0.5,2.4,0.7,3.6c0.7,1.1,2,1.5,2.6,3.1c0.1,1,0.2,1.9,0.3,2.9    c0.5,0.8,1.8,1.3,2.2,2.4c0.3,1.4,0.6,2.7,0.9,4.1c0.3,0.6,1.4,0.9,1.7,1.7c0.6,1.2,0.7,4.8,1.4,5.8c0.5,0.7,1.5,1.2,1.9,2.2    c0.7,1.7,0.5,3.9,1,5.5c0.3,0.9,1.8,1.9,2.2,3.1c0.6,1.8,0.7,4.1,1,5.8c0,0.1,0,0.1,0,0.2c1.4,1.4,2.3,3.4,2.9,5.6    c0.1,1.3,0.2,2.6,0.3,3.9c1,1.8,2.2,3.9,2.9,6.3c0.1,1.4,0.2,2.7,0.3,4.1c0.6,1.4,1.9,3.1,2.4,4.8c0.3,2.2,0.6,4.3,0.9,6.5    c0.7,1.5,1.9,3.5,2.4,5.5c0.2,2.2,0.5,4.3,0.7,6.5c0.7,1.7,1.8,4,2.4,6.1c0.2,2.3,0.5,4.5,0.7,6.8c0.8,2.3,1.8,5.4,2.6,8.2    c0.1,1.9,0.1,3.7,0.2,5.6c2,3.5,4.4,19.1,2.6,24.9c-1.1,3.4-2.6,7.6-5.3,9.5c-2.6,1.9-7.2,2.3-8.3,5.5c-2.7-1-6.7-9.6-8.5-12.3    c-7.8-11.7-15.8-23.3-23.3-35.3C31.8,218.9,12.5,192.7-7,167.8c-10.3-13.2-21.6-26.3-38.5-32.4c0,0.1,0,0.1,0,0.2    c0.7,0.6,1.4,1,1.7,2c-0.1,0.1-0.2,0.1-0.3,0.2c-1.8-0.9-3.6-1.8-5.5-2.7c0,0.1,0,0.1,0,0.2c0.8,0.8,1.6,1.6,2.4,2.4    c-0.1,0.2-0.1,0.5-0.2,0.7c-0.1,0-0.1,0-0.2,0c-2.2-0.4-3.5-1.7-5.5-2.4c0,0.1,0,0.1,0,0.2c1,1,3,2.1,2.4,3.6    c-2.3-0.1-3.7-1.3-5.5-2c0,0.1,0,0.1,0,0.2c1.1,1.2,2.6,1.9,3.1,3.7c-0.2,0.2-0.5,0.3-0.7,0.5c-2.1-0.1-3.4-1.1-5.1-1.7    c1.1,1.4,2.5,2.2,3.4,3.9c-0.1,0.3-0.2,0.6-0.3,0.9c-0.1,0.1-0.2,0.1-0.3,0.2c-2,0-3.1-0.7-4.6-1.2c0,0.1,0,0.1,0,0.2    c1.3,1.4,2.9,2.3,3.4,4.4c-0.3,0.2-0.7,0.5-1,0.7c-1.5,0.4-3-0.5-4.3-0.9c1.4,1.7,3.2,2.5,3.7,5.1c-0.4,0.3-0.8,0.6-1.2,0.9    c-1.3,0.3-2.7-0.5-3.6-0.3c1.6,1.4,3.2,2.6,3.7,5.1c-0.5,0.4-0.9,0.8-1.4,1.2c-1.2,0.3-2.2-0.1-3.2-0.3c1.5,1.7,3.7,2.8,4.1,5.6    c-0.4,0.8-0.6,1.2-1.4,1.5c-0.9,0.3-1.9,0.1-2.7-0.2c0,0.1,0,0.1,0,0.2c1.8,1.5,4,3,4.3,6c-0.5,0.8-0.7,1.3-1.5,1.7    c-0.6,0.1-1.2,0.1-1.9,0.2c1.8,1.6,4.1,3.2,4.3,6.3c-0.3,0.6-0.6,1.1-0.9,1.7c-0.8,0.2-1.2,0.3-2,0.2c0.8,0.7,1.6,1.5,2.4,2.2    c-0.6,0.9-1.1,1.7-1.7,2.6c0.4,1.4,0.8,2.7,1.2,4.1c-0.2,0-0.3,0-0.5,0c-3.6-2.4-3.8-10.6-4.9-15.5c-5.8-25.1-0.4-51,15.5-61.2    c4.9-3.1,11.3-4.3,18.1-5.5C-29.4,109.9-26.7,109.7-23.9,109.5z"/>
	</g>
	<path id="border" fill="none" stroke="#222221" stroke-width="0.142" stroke-miterlimit="10" d="M-21.8,109.4   c15.9-0.1,33.2,0,47.5,2.4c7.7,0.7,15.3,1.4,23,2c14.8,2.5,29.7,2.4,44,4.9c14.9,1.8,29.8,3.5,44.6,5.3c8,1.8,15,4.6,21.8,7.5   c2.4,1.4,4.8,2.8,7.2,4.3c12.3,7.5,24.9,16,33.7,26.9c2.7,2.8,5.5,5.7,8.2,8.5c5.6,7,11.3,13.9,16.5,21.3   c19.6,27.8,34,60.6,45.3,96.6c9.9,31.4,18.7,68.3,18.9,108.5c0.1,12.1-0.1,24-2,34.2c-0.5,2.4,0,8.1-1.7,9.4   c-16.6,3.7-33.3,7.4-49.9,11.1c-14.8-3.7-27.9-11.3-38.8-19.1c-14.7-10.5-30.5-26.9-41.7-41.1c-2.5-2.7-5-5.5-7.5-8.2   c-6.9-8.6-13.7-17.2-20.6-25.7c-18.9-25-36.4-50.9-54-77.4c-10.2-15.3-20.8-30.6-30.7-46.3c-4.4-7.1-11.1-13.7-14.5-21.5   c-0.2,0-0.5,0-0.7,0c-1.6,4.9-3.3,9.9-4.9,14.8c-1.5,6.8-3.1,13.6-4.6,20.4c-8.6,1.1-17.2,2.3-25.7,3.4   c-24-6.2-41.3-31.7-50.6-53.2c-2.6-6-4.1-12.6-6-19.3c-4.7-17.3-2.7-41.3,4.8-53.5c5.1-8.2,13.1-13,24.2-15.3   C-31.4,110.2-26.6,109.8-21.8,109.4z"/>  
</svg>