<?xml version="1.0" encoding="UTF-8"?>
<!-- Generator: Adobe Illustrator 18.1.1, SVG Export Plug-In . SVG Version: 6.00 Build 0)  -->
<svg version="1.1" id="Vektor" xmlns="http://www.w3.org/2000/svg" xmlns:xlink="http://www.w3.org/1999/xlink" x="0px" y="0px" viewBox="122 244.3 90 73" enable-background="new 122 244.3 90 73" xml:space="preserve">
<g>
	<g id="Ebene_2">
		<path fill="#ffffff" d="M175.9,252.8c1.1,0.7,2.1,1.8,3,2.8c2.6,2.6,4.8,5.6,6.9,8.8c3.9,6.3,6.7,13.3,9.1,21.2    c0.7,2.5,1.1,4.9,1.7,7.6c0.5,2.3,0.7,4.8,1.1,7.4c0.1,1,0.1,1.9,0.2,2.9c0.2,1.1,0.1,2.4,0.1,3.7c0,0.6,0,1.2,0,1.8    c-0.1,1-0.2,2.1-0.3,3.2c-0.2,1.1-0.2,2.8-0.5,3c-0.2,0-0.4,0.1-0.6,0.1c-0.2-0.7-0.3-1.3-0.5-2c-0.7-1.8-1-3.6-1.7-5.3    c-0.2-0.4-0.5-0.9-0.7-1.3c-0.3-0.8-0.4-1.5-0.8-2.2c-0.2-0.3-0.4-0.6-0.6-0.9c-0.1-0.5-0.3-0.9-0.4-1.4c-0.5-1-1-1.7-1.5-2.9    c-0.3-0.5-0.6-1.1-0.9-1.6c-0.2-0.2-0.3-0.4-0.5-0.5c-0.1-0.4-0.1-0.7-0.2-1.1c-0.2-0.7-0.5-1.5-0.7-2.2c0-0.5,0-0.9,0.1-1.4    c0-0.7-0.3-1.5-0.4-2.1c-0.1-0.6,0.1-1.3,0-2c-0.1-0.5-0.3-0.9-0.4-1.4c0-0.4,0-0.7,0.1-1.1c-0.1-0.7-0.4-1.5-0.6-2    c-0.1-0.3,0.1-1.2,0-1.7c-0.1-0.5-0.4-0.9-0.5-1.3c0-0.4,0-0.9,0-1.3c0-0.6-0.4-1.2-0.6-1.6c0-0.4,0-0.8,0-1.2    c-0.1-0.6-0.4-1.1-0.6-1.5c0-0.5-0.1-1-0.1-1.5c-0.1-0.4-0.5-0.9-0.6-1.2c-0.1-0.4,0-0.9-0.1-1.3c-0.1-0.4-0.4-0.8-0.6-1.1    c0-0.3,0-0.7-0.1-1c-0.1-0.5-0.5-0.9-0.7-1.3c-0.1-0.5,0-0.9-0.2-1.3c-0.1-0.3-0.3-0.4-0.5-0.6c0-0.3,0-0.5-0.1-0.8    c-0.1-0.5-0.4-0.8-0.7-1.2c0-0.3-0.1-0.7-0.1-1c-0.1-0.4-0.5-0.6-0.6-0.9c0-0.3-0.1-0.6-0.1-0.9c-0.1-0.3-0.5-0.5-0.6-0.8    c0-0.2-0.1-0.5-0.1-0.7c-0.1-0.4-0.4-0.5-0.6-0.7c-0.1-0.3-0.1-0.6-0.2-0.8c-0.1-0.3-0.4-0.4-0.5-0.6c-0.1-0.3-0.1-0.6-0.2-0.8    c-0.1-0.2-0.4-0.3-0.5-0.4c0-0.2-0.1-0.4-0.1-0.5c-0.1-0.3-0.4-0.4-0.6-0.6c-0.2-0.3-0.2-0.6-0.3-0.8    C176.7,253.8,176,253.1,175.9,252.8z"/>
		<path fill="#ffffff" d="M140.2,263.6c0.7,0.9,1.3,1.8,2,2.7c-0.5,1.5-1,3.1-1.5,4.8c-0.2,1-0.4,2-0.6,2.9c0,0-0.1,0-0.1,0    c-0.5-1.5-1-3.2-1.4-4.9c-0.2-0.7-0.5-1.6-0.2-2.4C138.9,265.7,139.7,264.7,140.2,263.6z"/>
	</g>
	<g id="Ebene_3">
		<path fill="#77161a" d="M123.6,260.5c0.3,0.1,0.7,0.9,0.5,1.3c-0.1,0.2-0.2,0.2-0.2,0.3c0.5,0.2,1.1,1.2,0.8,1.9    c-0.1,0-0.2,0-0.3,0c1.2,2.6,3,5.9,5.1,7.5c0.4,0.3,0.8,0.7,1.2,1c0.5,0.4,1.1,0.7,1.6,1.1c0,0,0,0,0,0c0,0,0,0,0,0    c-3.3-1.7-5.3-4.8-7.2-7.9c-0.6-1-1.7-2.9-1.8-4.1c0.1,0.1,0.2,0.1,0.3,0.2c-0.1-0.3-0.1-0.6-0.2-0.9    C123.4,260.9,123.5,260.7,123.6,260.5z"/>
		<path fill="#77161a" d="M196.6,315.1c-2.4,0.5-4.7,1-7.1,1.6c-0.7,0.2-2.4,0.5-3,0.7c-0.6-0.2-1.2-0.4-1.8-0.6    c-1.1-0.4-2.2-0.8-3.3-1.3c-1.6-0.9-3-2-4.4-3.1c-0.7-0.7-1.5-1.4-2.2-2c-1-0.8-2-1.8-2.8-2.8c-0.6-0.6-1.1-1.1-1.7-1.7    c-1.6-1.9-3.2-3.8-4.8-5.7c-4.1-5.4-8.1-10.9-12-16.6c0,0,0,0,0-0.1c0.3-0.6,1.2-0.7,1.8-1.1c0.5-0.3,0.9-1.2,1.1-1.8    c0.2-0.7,0.2-1.4,0-2.1c-0.2-0.8,0.1-1.3-0.1-2c-0.1-0.5-0.4-1-0.5-1.3c0-0.4,0-0.7,0-1.1c-0.1-0.3-0.2-0.7-0.3-1    c0-0.3-0.2-0.5-0.3-0.8c0-0.5-0.1-1-0.1-1.6c-0.1-0.4-0.3-0.8-0.5-1.2c-0.1-0.3,0-0.7-0.1-1c-0.1-0.6-0.4-1.2-0.6-1.6    c-0.2-0.5-0.2-1.3-0.3-1.8c-0.1-0.2-0.3-0.4-0.3-0.5c-0.1-0.2-0.1-0.6-0.1-0.8c0-0.5-0.4-1.1-0.6-1.4c-0.3-0.5-0.2-1.2-0.4-1.7    c-0.1-0.2-0.3-0.3-0.4-0.4c-0.1-0.2,0-0.6-0.1-0.9c-0.1-0.3-0.2-0.5-0.3-0.8c-0.1-0.1-0.2-0.2-0.3-0.3c-0.1-0.2,0-0.5-0.1-0.8    c-0.1-0.3-0.4-0.6-0.5-0.8c-0.2-0.4-0.1-0.9-0.3-1.2c-0.1-0.1-0.2-0.2-0.3-0.3c-0.1-0.3-0.1-0.6-0.2-0.9c-0.1-0.2-0.3-0.3-0.5-0.5    c-0.1-0.1-0.1-0.7-0.2-0.9c-0.1-0.2-0.3-0.2-0.4-0.3c-0.1-0.3-0.1-0.5-0.2-0.8c-0.1-0.2-0.3-0.2-0.4-0.4c0-0.2-0.1-0.4-0.1-0.5    c-0.1-0.3-0.3-0.4-0.5-0.6c-0.3-0.6-0.6-1.2-1.1-1.7c-0.1-0.2-0.1-0.4-0.2-0.6c-0.1-0.1-0.2,0-0.3-0.1c-0.1-0.2-0.2-0.4-0.3-0.6    c-0.1,0-0.2,0-0.3,0c-0.1-0.2-0.2-0.4-0.3-0.5c-0.1,0-0.2,0-0.3,0c-0.1-0.1-0.1-0.3-0.2-0.4c-0.1,0-0.2,0-0.3,0    c-0.1-0.1,0-0.3-0.2-0.4c-0.2-0.1-1.8-0.9-1.8-0.9c0.1,0,0.1,0,0.2,0c2.7,0.3,5.4,0.5,8,0.8c5.1,0.6,10.1,1.2,15.2,1.8    c3,0.8,5.5,1.9,7.8,3.5c0.9,0.7,2.2,1.4,2.8,2.4c0.1,0.2,0.1,0.3,0.2,0.5c0.1,0.2,0.5,0.3,0.6,0.6c0,0.2,0.1,0.3,0.1,0.5    c0.1,0.1,0.3,0.1,0.4,0.3c0.1,0.3,0.2,0.6,0.3,0.9c0.1,0.2,0.4,0.2,0.5,0.4c0.1,0.3,0.1,0.5,0.2,0.8c0.2,0.3,0.5,0.4,0.6,0.8    c0,0.2,0.1,0.4,0.1,0.6c0.1,0.2,0.4,0.3,0.5,0.6c0.1,0.3,0,0.6,0.2,0.9c0.1,0.3,0.5,0.6,0.7,0.9c0,0.2,0,0.5,0.1,0.7    c0.2,0.3,0.5,0.5,0.6,0.9c0,0.3,0.1,0.6,0.1,0.9c0.2,0.3,0.5,0.6,0.6,1c0,0.3,0.1,0.6,0.1,0.9c0.2,0.3,0.5,0.6,0.6,1.1    c0,0.3,0,0.6,0.1,0.9c0.1,0.3,0.4,0.6,0.6,1c0,0.4,0.1,0.8,0.1,1.3c0.1,0.3,0.4,0.7,0.6,1.1c0.2,0.5,0,0.8,0.1,1.3    c0.1,0.4,0.5,0.8,0.6,1.4c0,0.4,0,0.8,0.1,1.2c0.2,0.4,0.5,0.9,0.6,1.5c0,0.4,0,0.8,0,1.2c0.2,0.4,0.5,1,0.6,1.6    c0,0.4,0,0.8,0,1.3c0.1,0.3,0.3,0.6,0.4,1c0.2,0.7,0,1.4,0.1,2c0.1,0.5,0.4,1.2,0.5,1.7c0.1,0.4-0.2,1,0,1.5    c0.2,0.7,0.4,1.3,0.5,2.1c0.1,0.4-0.1,0.8-0.1,1.2c0.1,0.5,0.3,1.3,0.4,1.8c0.1,0.5-0.1,1.1-0.1,1.6c0.2,0.7,0.4,1.5,0.7,2.2    c0.1,0.4,0.1,0.8,0.2,1.2c0.2,0.4,0.9,1.3,1.2,1.8c0.2,0.5,0.3,0.9,0.5,1.4c0.2,0.3,0.4,0.6,0.7,0.9c0.4,0.7,0.6,1.4,0.9,2.2    c0.3,0.6,0.7,1.1,1,1.7c0.2,0.5,0.2,1,0.4,1.5c0.3,0.6,0.6,1.1,0.9,1.7c0.2,0.5,0.2,0.9,0.4,1.5c0.2,0.4,0.4,0.7,0.5,1.1    c0.2,0.6,0.3,1.1,0.4,1.8C196.1,313.3,196.5,314.1,196.6,315.1z"/>
	</g>
	<g id="Ebene_4">
		<path fill="#77161a" d="M124.3,263.9c0.1,0,0.2,0,0.3,0c0,0,0-0.1,0-0.1c0.3-0.6-0.6-1.5-1-1.7c0-0.1,0-0.1,0-0.2    c0.1,0,0.1,0,0.2,0c0,0,0.1,0,0.1-0.1c0.2-0.7-0.4-1.4-0.9-1.6c0-0.1,0-0.1,0-0.2c0.4,0,0.5,0,0.6-0.4c-0.1-0.5-0.5-1-0.9-1.2    c0-0.1,0-0.1,0-0.2c0.1,0,0.3,0,0.4,0c0.2-0.1,0.3-0.2,0.3-0.4c-0.3-0.4-0.4-0.8-0.9-1.1c0-0.1,0-0.1,0-0.2c0.3,0,0.4,0.1,0.7,0    c0.1-0.1,0.1-0.2,0.2-0.3c0.1-0.6-0.7-0.8-0.8-1.3c0.1,0,0.1,0,0.2,0c0.2,0.1,0.4,0.1,0.6,0.1c0.1-0.1,0.1-0.1,0.2-0.2    c-0.2-0.5-0.7-0.8-0.9-1.2c0.3,0.1,0.6,0.2,0.9,0.1c0.1-0.1,0.1-0.1,0.2-0.2c-0.2-0.3-0.8-0.8-0.8-1.1c0.4,0.1,0.6,0.3,1,0.2    c0,0,0.1-0.1,0.1-0.1c0,0,0-0.1,0-0.1c-0.2-0.3-0.7-0.6-0.8-0.9c0.4,0.1,0.7,0.3,1.2,0.3c0-0.5-0.6-0.6-0.7-1.1    c0.4,0.1,0.8,0.4,1.2,0.4c0,0,0.1,0,0.1,0c0,0,0,0-0.1-0.1c-0.2-0.4-0.5-0.4-0.7-0.8c0.4,0.2,0.8,0.3,1.3,0.5c0,0,0,0,0-0.1    c-0.2-0.2-0.6-0.5-0.7-0.8c0.4,0.2,0.9,0.4,1.3,0.5c0,0,0,0,0,0c-0.2-0.2-0.5-0.4-0.5-0.7c0.1,0,0.1,0,0.2,0    c0.4,0.2,0.7,0.4,1.1,0.6c-0.2-0.2-0.4-0.3-0.4-0.5c0.4,0,0.6,0.3,0.9,0.5c0.3,0.2,0.7,0,1,0.2c1,0.5,1.7,1.3,2.5,2    c2.3,1.8,4.2,4.4,6,6.8c1.1,1.4,2.4,2.8,3.3,4.4c-0.5,1-1.4,2.1-1.8,3.2c-0.4,0.8-0.1,1.7,0.2,2.4c0.2,0.8,0.5,1.6,0.6,2.4    c0.2,0.8,0.5,1.6,0.7,2.4c0,0,0,0-0.1,0c-0.8,0.1-1.6,0.2-2.4,0.3c-1,0.1-1.9,0.3-2.9,0.4c-0.6-0.3-1.3-0.5-1.9-0.7    c-2.8-1.4-4.7-3.4-6.3-5.9C125.9,267.1,124.4,265,124.3,263.9z"/>
	</g>
	<g id="Ebene_1">
		<path fill="#ffc82f" d="M189.5,300.5c0.1,0,0.2,0,0.3,0c0,0,0,0.1,0,0.1c-3.3,0.9-6.6,1.8-9.9,2.8c-1,0.3-3.4,0.6-4.2-0.1    c0.1-1.2,1.7-1.4,2.8-1.7c2.1-0.5,4.7-0.4,7-0.8C186.6,300.6,188.5,300.9,189.5,300.5z"/>
		<path fill="#ffc82f" d="M131.4,244.4c3,0,6-0.1,8.7,0.3c1.2,0.2,2.6,0,3.5,0.5c0.5,0.3,0.8,0.7,1.3,0.9c0.1,0.1,0.1,0.3,0.2,0.4    c0.1,0.1,0.3,0,0.4,0.1c0,0.1,0.1,0.2,0.1,0.4c0.1,0.1,0.2,0.1,0.4,0.2c0,0.2,0.1,0.3,0.1,0.5c0.1,0.1,0.3,0,0.4,0.1    c0,0.2,0.1,0.4,0.1,0.5c0.1,0.1,0.2,0.1,0.3,0.2c0.1,0.2,0.2,0.5,0.3,0.7c0.3,0.3,0.4,0.4,0.5,0.9c0.6,0.1,0.3,0.6,0.6,1    c0.1,0.1,0.3,0.2,0.4,0.4c0,0.3,0.1,0.5,0.1,0.8c0.2,0.2,0.4,0.3,0.5,0.7c0,0.2,0,0.4,0.1,0.6c0.1,0.2,0.4,0.3,0.5,0.5    c0.1,0.3,0.1,0.6,0.2,0.9c0.1,0.1,0.3,0.2,0.4,0.4c0.1,0.3,0.1,1,0.3,1.2c0.1,0.2,0.3,0.3,0.4,0.5c0.1,0.4,0.1,0.8,0.2,1.2    c0.1,0.2,0.4,0.4,0.5,0.7c0.1,0.4,0.2,0.9,0.2,1.2c0,0,0,0,0,0c0.3,0.3,0.5,0.7,0.6,1.2c0,0.3,0,0.6,0.1,0.8    c0.2,0.4,0.5,0.8,0.6,1.3c0,0.3,0,0.6,0.1,0.9c0.1,0.3,0.4,0.7,0.5,1c0.1,0.5,0.1,0.9,0.2,1.4c0.1,0.3,0.4,0.7,0.5,1.2    c0,0.5,0.1,0.9,0.1,1.4c0.1,0.4,0.4,0.8,0.5,1.3c0,0.5,0.1,1,0.1,1.5c0.2,0.5,0.4,1.1,0.5,1.7c0,0.4,0,0.8,0,1.2    c0.4,0.7,0.9,4.1,0.5,5.3c-0.2,0.7-0.6,1.6-1.1,2c-0.6,0.4-1.5,0.5-1.8,1.2c-0.6-0.2-1.4-2-1.8-2.6c-1.7-2.5-3.4-4.9-5-7.5    c-3.6-5.8-7.7-11.4-11.9-16.7c-2.2-2.8-4.6-5.6-8.2-6.9c0,0,0,0,0,0c0.1,0.1,0.3,0.2,0.4,0.4c0,0,0,0-0.1,0    c-0.4-0.2-0.8-0.4-1.2-0.6c0,0,0,0,0,0c0.2,0.2,0.3,0.3,0.5,0.5c0,0,0,0.1,0,0.1c0,0,0,0,0,0c-0.5-0.1-0.8-0.4-1.2-0.5    c0,0,0,0,0,0c0.2,0.2,0.6,0.4,0.5,0.8c-0.5,0-0.8-0.3-1.2-0.4c0,0,0,0,0,0c0.2,0.3,0.5,0.4,0.7,0.8c0,0-0.1,0.1-0.1,0.1    c-0.5,0-0.7-0.2-1.1-0.4c0.2,0.3,0.5,0.5,0.7,0.8c0,0.1,0,0.1-0.1,0.2c0,0,0,0-0.1,0c-0.4,0-0.7-0.1-1-0.3c0,0,0,0,0,0    c0.3,0.3,0.6,0.5,0.7,0.9c-0.1,0-0.1,0.1-0.2,0.1c-0.3,0.1-0.6-0.1-0.9-0.2c0.3,0.4,0.7,0.5,0.8,1.1c-0.1,0.1-0.2,0.1-0.3,0.2    c-0.3,0.1-0.6-0.1-0.8-0.1c0.3,0.3,0.7,0.6,0.8,1.1c-0.1,0.1-0.2,0.2-0.3,0.3c-0.2,0.1-0.5,0-0.7-0.1c0.3,0.4,0.8,0.6,0.9,1.2    c-0.1,0.2-0.1,0.2-0.3,0.3c-0.2,0.1-0.4,0-0.6,0c0,0,0,0,0,0c0.4,0.3,0.8,0.6,0.9,1.3c-0.1,0.2-0.1,0.3-0.3,0.4    c-0.1,0-0.3,0-0.4,0c0.4,0.3,0.9,0.7,0.9,1.3c-0.1,0.1-0.1,0.2-0.2,0.4c-0.2,0-0.3,0.1-0.4,0c0.2,0.2,0.3,0.3,0.5,0.5    c-0.1,0.2-0.2,0.4-0.4,0.5c0.1,0.3,0.2,0.6,0.3,0.9c0,0-0.1,0-0.1,0c-0.8-0.5-0.8-2.3-1.1-3.3c-1.2-5.3-0.1-10.8,3.3-13    c1-0.7,2.4-0.9,3.8-1.2C130.2,244.4,130.8,244.4,131.4,244.4z"/>
	</g>
	<path id="_x35__linien" fill="none" stroke="#222221" stroke-width="3.021761e-02" stroke-miterlimit="10" d="M131.8,244.3   c3.4,0,7.1,0,10.1,0.5c1.6,0.1,3.3,0.3,4.9,0.4c3.2,0.5,6.3,0.5,9.4,1.1c3.2,0.4,6.3,0.7,9.5,1.1c1.7,0.4,3.2,1,4.6,1.6   c0.5,0.3,1,0.6,1.5,0.9c2.6,1.6,5.3,3.4,7.2,5.7c0.6,0.6,1.2,1.2,1.7,1.8c1.2,1.5,2.4,3,3.5,4.5c4.2,5.9,7.2,12.9,9.6,20.6   c2.1,6.7,4,14.5,4,23.1c0,2.6,0,5.1-0.4,7.3c-0.1,0.5,0,1.7-0.4,2c-3.5,0.8-7.1,1.6-10.6,2.4c-3.2-0.8-5.9-2.4-8.3-4.1   c-3.1-2.2-6.5-5.7-8.9-8.7c-0.5-0.6-1.1-1.2-1.6-1.7c-1.5-1.8-2.9-3.7-4.4-5.5c-4-5.3-7.7-10.8-11.5-16.5c-2.2-3.3-4.4-6.5-6.5-9.9   c-0.9-1.5-2.4-2.9-3.1-4.6c0,0-0.1,0-0.1,0c-0.4,1.1-0.7,2.1-1.1,3.2c-0.3,1.5-0.7,2.9-1,4.4c-1.8,0.2-3.7,0.5-5.5,0.7   c-5.1-1.3-8.8-6.7-10.8-11.3c-0.6-1.3-0.9-2.7-1.3-4.1c-1-3.7-0.6-8.8,1-11.4c1.1-1.8,2.8-2.8,5.1-3.3   C129.8,244.5,130.8,244.4,131.8,244.3z"/>
</g>
</svg>