<?xml version="1.0" encoding="utf-8"?>
<svg version="1.1" id="Layer_1" xmlns="http://www.w3.org/2000/svg" xmlns:xlink="http://www.w3.org/1999/xlink" x="0px" y="0px" viewBox="0 0 793 180" style="enable-background:new 0 0 793 180;" xml:space="preserve">

<script type="text/ecmascript" xlink:href="../script/conf.js"></script>
<style type="text/css">
	.st4{fill-rule:evenodd;clip-rule:evenodd;fill:none;stroke:#D1D3D4;stroke-width:0.2;stroke-miterlimit:22.9256;}
     path:hover { opacity: 0.5; }
</style>
	
<g id="sector1" fill="#0000CC" onclick="sa(this.id)">
	<path d="M188.3,39.9c20.4-6.1,39.5-14.4,55.3-28C346.8-0.4,449.4-0.9,551.8,11.1 c5.6,5,13.3,11.1,29.1,18.7c8.7,4.1,17.7,7.5,27,10l16.3,2.4c9.2,1.4,18.4,2.9,27.5,4.6c8.8,1.7,16.6,3.4,22.4,5 c-25.5-0.6-46.3,3.8-64.4,13.1c-4.8,2-8.7,3.5-14.2,5.5c-21.9,8.5-50.8,14.2-86.7,6.1c-9.2-2.1-19.1-6.1-29.3-10.8 c-7.5-3.5-14.1-5.7-14.8-6c-29.7-11.6-59.8-17-89.2-12c-19.7,3.2-39.5,9.8-59.5,18.3c-13,6.7-27.6,11.1-43.7,13.4 c-14.7,1.9-29.2,2.2-43.2-0.5c-19-4.8-38.2-11.6-57.6-19.4c-16.2-6.2-33-8.3-50.1-7.4C136,48.1,162,43.1,188.3,39.9z"/>
</g>	
	
<g id="sector2" fill="#0DD0CC" onclick="tbd()">
	<path d="M5.6,111.5l0.2-5.2c28.1-53.2,118.6-80.6,238.3-94.8c-13.6,11.9-32,21.4-55.9,28.4 c-28.1,3.9-53.9,8.1-71.2,13.4C70.1,62.8,31.2,80.5,5.6,111.5z"/>
	<path d="M790.6,111.5l-0.2-5.2C760,53.1,671.7,25.6,552.1,11.5c13.6,11.9,32,21.4,55.9,28.4 c28.1,3.9,53.9,8.1,71.2,13.4C726.2,62.8,765,80.5,790.6,111.5z"/>
</g>

<g id="sector3" fill="#AAA0CC" onclick="tbd()">
	<path d="M5.6,111.5C26.9,86.3,60.1,64.8,121.5,52c16.1-1,32.5,0.6,49.5,7.2c17.6,6.9,35.8,13.8,59.2,19.9 c21.7,3.5,45.3,2.3,72.6-7.4c74.4-32.9,111.8-35.4,186.5-1.8c14.2,6,30.7,10.5,54.5,10.7c19.8,0.2,42.4-5.6,67.1-16.1 c14.9-7.5,33.3-13.1,63.2-12.6c46.4,10.2,89.2,25,116.4,59.6v5.8c-30.7-28.4-70.4-40.1-119.1-48.1c-23.1-0.7-43.4,3.7-61.6,12.4 c-19.9,8.8-40.2,14.1-61,14c-26.3-0.8-49.4-7.8-70.4-18.8c-54-29-95.4-36.4-150.5-5.1c-30.4,15.8-58.8,25.4-83.8,24.2 c-25.7-0.5-43.4-8.7-57.7-14L168.3,75c-8-3.3-19.2-5.2-33.9-6.1C80.7,74,29.4,92.6,5.6,117.3V111.5z"/>
</g>

<g id="sector4" fill="#FFF0CC" onclick="tbd()">
	<path d="M5.6,117.3v10.1c25.2-28.4,88-47,130.9-48.5c13.6,0,29.3,4.2,46.5,11.4 c18.4,8.5,38.2,14.6,61.4,15.1c23.2,1.5,52.3-7.1,88.4-28.3c22.8-12.6,45-21.1,65.9-20.4c16.1-0.3,35.4,4.9,59.7,18.2 c15.7,8.5,32.8,16.9,51.8,24.9c23.7,7.7,49.8,7.7,78.4-0.7c25.3-8.6,47.8-20.9,71.2-20.2c35.2,1.6,103.5,17.1,130.4,48.4v-10.1 c-5.9-5.7-12.5-11-20.2-15.6c-20.1-12-41.8-20.6-65-25.8c-11.5-2.9-23.1-5.3-33.9-6.7c-24.9-1-44.5,4.2-61.6,12.4 c-18.7,8.5-37.8,13.5-57.7,14c-28.8-0.1-52.4-7.8-72.5-18.2c-9.7-5.2-19.6-10-29.7-14.3c-9.2-3.8-19.1-6.9-29.7-9.3 c-10-2.1-19.9-2.8-29.7-2.3C380,52,370.2,54.2,360.8,57c-10.4,3.3-20.4,7.7-29.9,13c-15.5,8.5-30.2,14.9-44,19.2 c-19.5,6.4-38.8,8.4-57.6,5.4c-9.3-1.2-18.9-3.6-28.8-7.5l-14-5.3l-14.8-5.6c-10.1-4.5-22.6-6.9-37.2-7.3 c-17.8,1.7-31.6,4.3-43.9,7.3C76,79.5,63,84,50.6,89C34.2,96,17.9,104.6,5.6,117.3z"/>
	<rect x="2.4" y="109" class="st6" width="2.4" height="2.4"/>
</g>

<g id="sector5" fill="#00CCFF" onclick="tbd()">
	<path d="M5.6,146.8c0.1-13.5,0.1-5.9,0.2-19.4C29.3,102.1,74,83.8,130.3,79.2c17-1.7,35.6,3.7,55.7,12.4 c21,9.3,44,15.1,72.1,13.6c20.5-1.7,44.1-10.7,73-26.9c23.3-13.7,45.6-22.4,66.9-21.6c23.9,0,45.7,8.9,66.9,21.5 c15.3,7.7,30.6,15.2,45.7,21.6c31,10.4,68.6,5.2,99.3-8.5c23.6-9.2,36.5-13.6,55.7-12c28,2.5,54.6,8.9,79.8,18.8 c18.6,7.7,35,17.1,45.5,29.6c0.1,13.5,0.2,5.7,0.3,19.2c-7.3-1.1-21.7-1.7-29.7-0.1c-43.9,8.1-86.9,14.9-127.7,18.9 c-77.4,8.9-156.3,11.2-235.5,12.1c-86.4-0.7-160.3-3.6-217.2-9.6c-53.1-5.9-103.5-13.6-152.5-22.2C20.2,145.5,12.6,145.7,5.6,146.8z"/>
</g>
	
<g>
	<line class="st4" x1="4.9" y1="106.3" x2="4.9" y2="146.9"/>
	<line class="st4" x1="14.5" y1="94.5" x2="14.5" y2="146.1"/>
	<line class="st4" x1="25.4" y1="83.4" x2="25.4" y2="146.1"/>
	<line class="st4" x1="37.7" y1="73.3" x2="37.7" y2="147.4"/>
	<line class="st4" x1="50.6" y1="64.4" x2="50.6" y2="149.6"/>
	<line class="st4" x1="63.9" y1="56.7" x2="63.9" y2="152"/>
	<line class="st4" x1="77.1" y1="50.4" x2="77.1" y2="154.4"/>
	<line class="st4" x1="90.5" y1="45" x2="90.5" y2="156.6"/>
	<line class="st4" x1="103.8" y1="40.2" x2="103.8" y2="158.7"/>
	<line class="st4" x1="117" y1="36" x2="117" y2="160.6"/>
	<line class="st4" x1="130.3" y1="32.2" x2="130.3" y2="162.5"/>
	<line class="st4" x1="144.1" y1="28.6" x2="144.1" y2="164.2"/>
	<line class="st4" x1="157.9" y1="25.4" x2="157.9" y2="165.9"/>
	<line class="st4" x1="171.6" y1="22.5" x2="171.6" y2="167.4"/>
	<line class="st4" x1="186" y1="19.8" x2="186" y2="168.8"/>
	<line class="st4" x1="200.4" y1="17.3" x2="200.4" y2="170.1"/>
	<line class="st4" x1="214.8" y1="15" x2="214.8" y2="171.3"/>
	<line class="st4" x1="229.2" y1="13" x2="229.2" y2="172.4"/>
	<line class="st4" x1="243.6" y1="11.2" x2="243.6" y2="173.3"/>
	<line class="st4" x1="258.1" y1="9.6" x2="258.1" y2="174.2"/>
	<line class="st4" x1="272.5" y1="8.2" x2="272.5" y2="174.9"/>
	<line class="st4" x1="286.9" y1="6.9" x2="286.9" y2="175.6"/>
	<line class="st4" x1="301.3" y1="5.8" x2="301.3" y2="176.2"/>
	<line class="st4" x1="316.1" y1="4.9" x2="316.1" y2="176.7"/>
	<line class="st4" x1="331" y1="4.2" x2="331" y2="177.1"/>
	<line class="st4" x1="345.9" y1="3.6" x2="345.9" y2="177.4"/>
	<line class="st4" x1="360.8" y1="3.2" x2="360.8" y2="177.6"/>
	<line class="st4" x1="375.6" y1="2.9" x2="375.6" y2="177.8"/>
	<line class="st4" x1="390.5" y1="2.8" x2="390.5" y2="177.8"/>
	<line class="st4" x1="791" y1="106.3" x2="791" y2="146.9"/>
	<line class="st4" x1="781.3" y1="94.5" x2="781.3" y2="146.1"/>
	<line class="st4" x1="770.4" y1="83.4" x2="770.4" y2="146.1"/>
	<line class="st4" x1="758.1" y1="73.3" x2="758.1" y2="147.4"/>
	<line class="st4" x1="745.2" y1="64.4" x2="745.2" y2="149.6"/>
	<line class="st4" x1="732" y1="56.7" x2="732" y2="152"/>
	<line class="st4" x1="718.7" y1="50.4" x2="718.7" y2="154.4"/>
	<line class="st4" x1="705.4" y1="45" x2="705.4" y2="156.6"/>
	<line class="st4" x1="692.1" y1="40.2" x2="692.1" y2="158.7"/>
	<line class="st4" x1="678.8" y1="36" x2="678.8" y2="160.6"/>
	<line class="st4" x1="665.5" y1="32.2" x2="665.5" y2="162.5"/>
	<line class="st4" x1="651.7" y1="28.6" x2="651.7" y2="164.2"/>
	<line class="st4" x1="638" y1="25.4" x2="638" y2="165.9"/>
	<line class="st4" x1="624.2" y1="22.5" x2="624.2" y2="167.4"/>
	<line class="st4" x1="609.8" y1="19.8" x2="609.8" y2="168.8"/>
	<line class="st4" x1="595.4" y1="17.3" x2="595.4" y2="170.1"/>
	<line class="st4" x1="581" y1="15" x2="581" y2="171.3"/>
	<line class="st4" x1="566.6" y1="13" x2="566.6" y2="172.4"/>
	<line class="st4" x1="552.2" y1="11.2" x2="552.2" y2="173.3"/>
	<line class="st4" x1="537.8" y1="9.6" x2="537.8" y2="174.2"/>
	<line class="st4" x1="523.4" y1="8.2" x2="523.4" y2="174.9"/>
	<line class="st4" x1="509" y1="6.9" x2="509" y2="175.6"/>
	<line class="st4" x1="494.5" y1="5.8" x2="494.5" y2="176.2"/>
	<line class="st4" x1="479.7" y1="4.9" x2="479.7" y2="176.7"/>
	<line class="st4" x1="464.8" y1="4.2" x2="464.8" y2="177.1"/>
	<line class="st4" x1="449.9" y1="3.6" x2="449.9" y2="177.4"/>
	<line class="st4" x1="435.1" y1="3.2" x2="435.1" y2="177.6"/>
	<line class="st4" x1="420.2" y1="2.9" x2="420.2" y2="177.8"/>
	<line class="st4" x1="405.4" y1="2.8" x2="405.4" y2="177.8"/>
</g>
</svg>
