<?xml version="1.0" encoding="utf-8"?>
<!-- Generator: Adobe Illustrator 19.0.0, SVG Export Plug-In . SVG Version: 6.00 Build 0)  -->
<svg version="1.1" id="Layer_1" xmlns="http://www.w3.org/2000/svg" xmlns:xlink="http://www.w3.org/1999/xlink" x="0px" y="0px"
	 viewBox="0 0 590 370" style="enable-background:new 0 0 590 370;" xml:space="preserve">
<style type="text/css">
	.st0{fill-rule:evenodd;clip-rule:evenodd;fill:#BA2925;}
	.st1{fill-rule:evenodd;clip-rule:evenodd;}
	.st2{opacity:0.3;fill-rule:evenodd;clip-rule:evenodd;fill:none;stroke:#A7A9AC;stroke-width:0.5;stroke-miterlimit:22.9256;}
	.st3{clip-path:url(#XMLID_155_);}
	.st4{fill-rule:evenodd;clip-rule:evenodd;fill:#FFFFFF;stroke:#A7A9AC;stroke-width:0.216;stroke-miterlimit:22.9256;}
	.st5{fill-rule:evenodd;clip-rule:evenodd;fill:none;stroke:#A7A9AC;stroke-width:0.5;stroke-miterlimit:22.9256;}
	.st6{fill-rule:evenodd;clip-rule:evenodd;fill:none;stroke:#6D6E71;stroke-width:0.5;stroke-miterlimit:22.9256;}
	.st7{opacity:0.3;fill-rule:evenodd;clip-rule:evenodd;fill:#FFFFFF;stroke:#000000;stroke-width:0.216;stroke-miterlimit:22.9256;}
	.st8{opacity:0.3;fill-rule:evenodd;clip-rule:evenodd;fill:none;stroke:#000000;stroke-width:0.5;stroke-miterlimit:22.9256;}
	.st9{fill-rule:evenodd;clip-rule:evenodd;fill:#FFFFFF;stroke:#000000;stroke-width:0.216;stroke-miterlimit:22.9256;}
</style>
<g id="XMLID_152_" onclick="SIDE()">
	<g id="XMLID_304_" onclick="side()">
		<path id="XMLID_151_" class="st0" d="M585.3,337.3l-20.7,1.3l-35.8-59.8c-16.7-27.3-27.2-47.3-45.6-72l-12.4-17.6
			c-11.3-15.7-21.4-32.1-26.4-52.2c-5.7-21.2-17.7-38.7-36.1-52.3c-16.5-11.7-34.1-20.7-52.2-28.3c-13.3-5.2-27.2-9.6-41.1-13.9
			c-32.7-10-68.9-18.5-104.9-27.1c47.6,2,94.6,5.5,141.2,10.1c68.4,11.4,116.8,44.1,159.7,90.9C555.5,165.3,585.3,230.6,585.3,337.3
			z"/>
		<path id="XMLID_150_" class="st1" d="M564.6,338.6l-10.9,2c-26.3-46.4-60.1-106.1-97.4-156.9c-6.5-9.3-12.2-19.7-17-31.4
			c-8.3-21.3-13.7-44.3-31.9-59.9c-24.8-25.9-87-50.4-203-76.9h5.8c31.8,7,68.1,14.3,105.8,27l41.1,13.9
			c19.6,7.6,36.5,17.8,51.2,28.4c19.3,14.5,30.8,32.1,36.1,52.3c5.4,18.9,14.3,36.2,26.4,52.2c21.7,30,40,58.2,58,89.6
			C541.1,299.2,553,319.1,564.6,338.6z"/>
		<path id="XMLID_149_" class="st1" d="M547.6,341.7l-6.4,0.4c-26.4-20.5-60.1-57.2-94.5-96.7c-44.1-49.4-92.5-92.1-143.3-126.8
			c8.8-6.5,20.8-8.2,31.3-7.9c18.2,2.9,33.4,10.6,47.9,23.9c20.2,17.4,40.4,38.4,60.6,63.4l28,36.1L547.6,341.7z"/>
		<path id="XMLID_148_" class="st0" d="M443.2,198c-18.5-23-38.2-44.6-60.6-63.4c-13.7-12.4-29.7-20.4-47.9-23.9
			c-10-0.6-20.3,1-31.3,7.9c-47.2-32.7-93.3-54.3-142.3-63.1c-34.5-6.8-63.1-4.2-87.6,4.9c-4.4-2.2-5.4-10.2-5.2-20.1
			c37-20.3,79.9-27.1,126.6-25c71.4,17.2,148.6,36.7,189.6,71c14,10.7,24.6,30.5,32.4,57.3C423.7,165.7,433,182.7,443.2,198z"/>
		<path id="XMLID_147_" class="st1" d="M73.5,60.5c-4.5-2.6-5.5-10.4-5.2-20.1c-18.2,9.9-35.7,23-50.7,48.2
			c-14.7,27.2-14.4,53-4.9,77.9c6.8,16.1,16.5,29.4,27,38.9c-11.7-11.6-22.1-26.4-27-41c-3-16.4,0.6-45.6,9.7-63.9
			C33.3,80.3,53.4,64.8,73.5,60.5z"/>
	</g>
	<g id="XMLID_239_" onclick="side()">
		<line id="XMLID_146_" class="st2" x1="585.4" y1="324" x2="533" y2="335.3"/>
		<line id="XMLID_145_" class="st2" x1="584.9" y1="312" x2="521.4" y2="324.9"/>
		<line id="XMLID_144_" class="st2" x1="584.2" y1="299.3" x2="510.9" y2="314.8"/>
		<line id="XMLID_143_" class="st2" x1="583" y1="286.3" x2="500.3" y2="304.1"/>
		<line id="XMLID_142_" class="st2" x1="581.5" y1="273.5" x2="489.6" y2="292.9"/>
		<line id="XMLID_141_" class="st2" x1="579.5" y1="260.6" x2="479.6" y2="282.1"/>
		<polyline id="XMLID_140_" class="st2" points="574.3,235.5 523,246.3 459.7,260 		"/>
		<polyline id="XMLID_139_" class="st2" points="577.2,248.2 523,259.6 469.6,271.1 		"/>
		<path id="XMLID_138_" class="st2" d="M570.8,222.9c-40.9,8.3-81.3,17.2-121.3,25.6"/>
		<path id="XMLID_137_" class="st2" d="M566.8,210.1c-43.6,7-85.8,16.6-127.8,26.6"/>
		<path id="XMLID_136_" class="st2" d="M560.5,193.5c-44.9,8.8-88.8,19.6-132.1,31.9"/>
		<path id="XMLID_135_" class="st2" d="M552.8,176.6c-46.3,11.8-91.5,23.4-135.3,37.5"/>
		<path id="XMLID_134_" class="st2" d="M543,158.9c-48.9,10.1-92.2,27.1-134.7,46.1"/>
		<path id="XMLID_133_" class="st2" d="M531.7,141.7c-44.3,12.4-91.2,29.4-137.2,51.4"/>
		<path id="XMLID_132_" class="st2" d="M517.1,123.1c-48,17-93.4,35.9-135.2,57.2"/>
		<path id="XMLID_131_" class="st2" d="M503.4,108.1c-45.2,15.3-90.6,36-136,59.4"/>
		<path id="XMLID_130_" class="st2" d="M489.4,94.3c-46.7,18.2-93,39.7-134.8,62.5"/>
		<path id="XMLID_129_" class="st2" d="M474.5,81.3c-47.5,17.3-91.9,39.3-134.1,64.4"/>
		<path id="XMLID_128_" class="st2" d="M457.1,68c-47.8,17.3-91,41-132,65.8"/>
		<path id="XMLID_127_" class="st2" d="M442.9,58.8c-49.1,17-92.2,39.1-132.8,64.3"/>
		<path id="XMLID_126_" class="st2" d="M375.7,30.5C330.6,46.1,289.9,64.9,259.2,91"/>
		<path id="XMLID_125_" class="st2" d="M394.7,36.2c-45.1,15.6-91.6,36.1-122.4,62.2"/>
		<line id="XMLID_124_" class="st2" x1="12" y1="155.8" x2="8.9" y2="153.8"/>
		<line id="XMLID_123_" class="st2" x1="11.8" y1="151.2" x2="7.7" y2="148.6"/>
		<line id="XMLID_122_" class="st2" x1="11.9" y1="146.6" x2="6.9" y2="143.4"/>
		<line id="XMLID_121_" class="st2" x1="12.2" y1="142" x2="6.4" y2="138.3"/>
		<line id="XMLID_120_" class="st2" x1="12.6" y1="137.8" x2="6.1" y2="133.2"/>
		<line id="XMLID_119_" class="st2" x1="13.1" y1="133.5" x2="6.2" y2="128.3"/>
		<line id="XMLID_118_" class="st2" x1="14.1" y1="127.5" x2="6.7" y2="122.4"/>
		<line id="XMLID_117_" class="st2" x1="15.3" y1="121.3" x2="7.7" y2="116.1"/>
		<line id="XMLID_116_" class="st2" x1="16.5" y1="116.2" x2="9.3" y2="109.3"/>
		<line id="XMLID_115_" class="st2" x1="18.2" y1="110.7" x2="11.3" y2="102.9"/>
		<line id="XMLID_114_" class="st2" x1="20.3" y1="105.3" x2="13.3" y2="98"/>
		<line id="XMLID_113_" class="st2" x1="23" y1="99.8" x2="15.9" y2="92.3"/>
		<line id="XMLID_112_" class="st2" x1="25.8" y1="95.1" x2="18.7" y2="87.1"/>
		<line id="XMLID_111_" class="st2" x1="28.6" y1="90.6" x2="21.8" y2="82.2"/>
		<line id="XMLID_110_" class="st2" x1="32.2" y1="86.5" x2="25.1" y2="77.5"/>
		<line id="XMLID_109_" class="st2" x1="36.3" y1="81.9" x2="28.9" y2="72.6"/>
		<line id="XMLID_108_" class="st2" x1="40.5" y1="77.9" x2="33" y2="67.8"/>
		<line id="XMLID_107_" class="st2" x1="45.3" y1="74" x2="37.4" y2="63.1"/>
		<line id="XMLID_106_" class="st2" x1="50.2" y1="70.5" x2="41.9" y2="58.8"/>
		<line id="XMLID_105_" class="st2" x1="55.3" y1="67.4" x2="46.8" y2="54.7"/>
		<line id="XMLID_104_" class="st2" x1="61.2" y1="64.8" x2="52.8" y2="50.1"/>
		<line id="XMLID_103_" class="st2" x1="69.6" y1="61.2" x2="60.8" y2="44.9"/>
		<line id="XMLID_102_" class="st2" x1="76.9" y1="59.3" x2="69.3" y2="40"/>
		<line id="XMLID_101_" class="st2" x1="85.7" y1="56.6" x2="78.5" y2="35.3"/>
		<path id="XMLID_100_" class="st2" d="M94.3,54.5c-2.3-7.7-4.3-15.6-6-23.5"/>
		<path id="XMLID_99_" class="st2" d="M104.8,52.8c-2.4-8.4-4.4-17-5.9-25.7"/>
		<path id="XMLID_98_" class="st2" d="M114.9,51.7c-2.3-9.2-3.3-18.7-3.5-28.4"/>
		<path id="XMLID_97_" class="st2" d="M125.9,51.4c-1.5-10.3-1.7-20.8-0.3-31.4"/>
		<path id="XMLID_96_" class="st2" d="M147.5,53.2c0.2-12.5,2.5-25.2,9.8-37.4"/>
		<path id="XMLID_95_" class="st2" d="M137,52c-1.5-11-0.2-22.5,4-34.5"/>
		<path id="XMLID_94_" class="st2" d="M158.2,54.9c2.7-13.2,4.8-26.5,12.2-39.8"/>
		<path id="XMLID_93_" class="st2" d="M169.8,57.2c2.3-17.7,7.4-31.5,14.1-42.2"/>
		<path id="XMLID_92_" class="st2" d="M180.6,59.2c-0.2-9.2,2-18,5.6-25.6c3.6-7.5,8.6-13.9,14-18.2"/>
		<path id="XMLID_91_" class="st2" d="M189.1,61.2c-0.2,2.8,1.1-6.4,5.8-17.3c4.7-10.9,12.8-23.7,26.4-28.1"/>
		<path id="XMLID_90_" class="st2" d="M195.5,63.8c12.1-24.7,25.6-41.3,40.8-47.2"/>
		<path id="XMLID_89_" class="st2" d="M204.5,67.4c12.1-24.7,36.9-43.8,52.1-49.6"/>
		<path id="XMLID_88_" class="st2" d="M214.4,70.8c12.1-24.7,52.8-45.4,68-51.3"/>
		<path id="XMLID_87_" class="st2" d="M222.6,74c12.1-24.7,70-46.6,85.3-52.5"/>
		<path id="XMLID_86_" class="st2" d="M235.3,79.6c12.1-24.7,80.6-50.3,95.9-56.1"/>
		<path id="XMLID_85_" class="st2" d="M248,85.6c12.1-24.7,88.3-54.3,103.5-60.2"/>
		<path id="XMLID_84_" class="st2" d="M410.4,42.6c-45.1,15.6-94.8,37.5-125.6,63.5"/>
		<path id="XMLID_83_" class="st2" d="M425.7,49.3c-45.1,15.6-98.8,38.5-129.6,64.5"/>
	</g>
	<g id="XMLID_170_" onclick="side()">
		<defs>
			<path id="XMLID_17_" d="M160,55.4c-10.3-2.4-24.7-3.8-45.3-3.6c-12.4,1.5-26.3,2.5-41.2,8.8c-13.9,2.6-28.4,11.2-41.5,26
				c-9.2,10.3-14.4,23-17.2,36.9C23,99.1,39,80.8,63.4,68.7C88.4,56.3,121.3,52.2,160,55.4z"/>
		</defs>
		<clipPath id="XMLID_155_">
			<use xlink:href="#XMLID_17_"  style="overflow:visible;opacity:0.3;"/>
		</clipPath>
		<g id="XMLID_172_" class="st3">
			<g id="XMLID_173_">
				<path id="XMLID_82_" class="st4" d="M542.1,377.4l-6.2,0.6c-21.7-31.6-44.4-73.8-67.1-110.3L444,230.4
					c-9.5-17.3-17.3-35.3-21.5-54.6c-4.8-24-12.7-44.6-27.3-58c-20-17.6-43.6-32-70.8-43.5c-37.3-15.6-75-29.7-113.5-41.2l9.4,1.1
					c114.7,34.4,178.2,66.2,197.2,91.5c12.8,10.8,21,34.1,26.7,60.2c3.6,11,8.5,21.6,14.3,31.8C490.1,268.5,517.1,322.7,542.1,377.4
					z"/>
				<line id="XMLID_81_" class="st5" x1="575.3" y1="364.1" x2="521.6" y2="370.5"/>
				<line id="XMLID_80_" class="st5" x1="576" y1="352.5" x2="510.9" y2="359.6"/>
				<line id="XMLID_79_" class="st5" x1="576.4" y1="340.2" x2="501.3" y2="349"/>
				<line id="XMLID_78_" class="st5" x1="576.4" y1="327.6" x2="491.5" y2="337.7"/>
				<line id="XMLID_77_" class="st5" x1="576" y1="315" x2="481.8" y2="326"/>
				<line id="XMLID_76_" class="st5" x1="575.2" y1="302.5" x2="472.7" y2="314.7"/>
				<polyline id="XMLID_75_" class="st5" points="572.2,277.7 519.6,283.9 454.7,291.6 				"/>
				<polyline id="XMLID_74_" class="st5" points="574,290.2 518.4,296.7 463.6,303.2 				"/>
				<path id="XMLID_73_" class="st5" d="M570,265.3c-42,4.6-83.4,9.6-124.4,14.4"/>
				<path id="XMLID_72_" class="st5" d="M567,252.6c-44.5,3-87.9,8.7-131,14.8"/>
				<path id="XMLID_71_" class="st5" d="M562.2,236.1c-45.9,4.7-91.2,11.3-135.8,19.5"/>
				<path id="XMLID_70_" class="st5" d="M556,219.2c-47.6,7.4-94.2,14.7-139.6,24.6"/>
				<path id="XMLID_69_" class="st5" d="M547.8,201.2c-50.1,5.6-95.2,18.3-139.8,33"/>
				<path id="XMLID_68_" class="st5" d="M538,183.6c-45.8,8.2-94.5,20.6-142.7,38"/>
				<path id="XMLID_67_" class="st5" d="M525,164.5c-49.8,12.4-97.2,26.7-141.2,43.7"/>
				<path id="XMLID_66_" class="st5" d="M512.6,148.8c-46.9,10.9-94.4,27-142.3,45.7"/>
				<path id="XMLID_65_" class="st5" d="M499.7,134.3c-48.7,13.6-97.2,30.4-141.3,48.9"/>
				<path id="XMLID_64_" class="st5" d="M486,120.5c-49.4,12.6-96,30.1-140.8,50.7"/>
				<path id="XMLID_63_" class="st5" d="M469.7,106.2c-49.7,12.6-95.3,31.8-138.8,52.3"/>
				<path id="XMLID_62_" class="st5" d="M456.2,96.1c-51,12.2-96.3,29.9-139.5,50.8"/>
				<path id="XMLID_61_" class="st5" d="M391.2,63.1c-46.8,11.2-89.4,25.9-122.8,48.4"/>
				<path id="XMLID_60_" class="st5" d="M409.8,70.2c-46.8,11.2-95.5,27-128.8,49.6"/>
				<line id="XMLID_59_" class="st5" x1="13.8" y1="153" x2="10.9" y2="150.8"/>
				<line id="XMLID_58_" class="st5" x1="14" y1="148.5" x2="10.1" y2="145.7"/>
				<line id="XMLID_57_" class="st5" x1="14.6" y1="144.1" x2="9.8" y2="140.6"/>
				<line id="XMLID_56_" class="st5" x1="15.2" y1="139.7" x2="9.8" y2="135.7"/>
				<line id="XMLID_55_" class="st5" x1="16" y1="135.6" x2="10" y2="130.7"/>
				<line id="XMLID_54_" class="st5" x1="17" y1="131.5" x2="10.5" y2="125.9"/>
				<line id="XMLID_53_" class="st5" x1="18.5" y1="125.9" x2="11.6" y2="120.3"/>
				<line id="XMLID_52_" class="st5" x1="20.3" y1="120" x2="13.1" y2="114.3"/>
				<line id="XMLID_51_" class="st5" x1="22" y1="115.2" x2="15.4" y2="107.9"/>
				<line id="XMLID_50_" class="st5" x1="24.1" y1="110" x2="18" y2="101.9"/>
				<line id="XMLID_49_" class="st5" x1="26.7" y1="105" x2="20.4" y2="97.4"/>
				<line id="XMLID_48_" class="st5" x1="30" y1="99.9" x2="23.5" y2="92.1"/>
				<line id="XMLID_47_" class="st5" x1="33.3" y1="95.6" x2="26.8" y2="87.3"/>
				<line id="XMLID_46_" class="st5" x1="36.5" y1="91.5" x2="30.4" y2="82.8"/>
				<line id="XMLID_45_" class="st5" x1="40.5" y1="87.8" x2="34.1" y2="78.6"/>
				<line id="XMLID_44_" class="st5" x1="45" y1="83.8" x2="38.4" y2="74.1"/>
				<line id="XMLID_43_" class="st5" x1="49.6" y1="80.3" x2="42.9" y2="69.9"/>
				<line id="XMLID_42_" class="st5" x1="54.8" y1="76.9" x2="47.9" y2="65.7"/>
				<line id="XMLID_41_" class="st5" x1="60" y1="74" x2="52.8" y2="62"/>
				<line id="XMLID_40_" class="st5" x1="65.5" y1="71.4" x2="58" y2="58.4"/>
				<line id="XMLID_39_" class="st5" x1="71.6" y1="69.4" x2="64.5" y2="54.5"/>
				<line id="XMLID_38_" class="st5" x1="80.4" y1="66.6" x2="73" y2="50.1"/>
				<line id="XMLID_37_" class="st5" x1="87.9" y1="65.4" x2="82.1" y2="46.2"/>
				<line id="XMLID_36_" class="st5" x1="97" y1="63.5" x2="91.8" y2="42.4"/>
				<path id="XMLID_35_" class="st5" d="M105.8,62.3c-1.6-7.7-2.9-15.4-3.9-23.2"/>
				<path id="XMLID_34_" class="st5" d="M116.6,61.5c-1.7-8.3-2.9-16.8-3.6-25.3"/>
				<path id="XMLID_33_" class="st5" d="M126.9,61.3c-1.5-9.1-1.7-18.3-0.9-27.7"/>
				<path id="XMLID_32_" class="st5" d="M137.9,61.9c-0.5-10,0.2-20.2,2.6-30.3"/>
				<path id="XMLID_31_" class="st5" d="M159.5,65.5c1.3-12,4.9-24.1,13.3-35.3"/>
				<path id="XMLID_30_" class="st5" d="M149.1,63.4c-0.5-10.8,1.9-21.7,7.2-33"/>
				<path id="XMLID_29_" class="st5" d="M170.2,68.1c3.9-12.5,7.2-25.1,16-37.4"/>
				<path id="XMLID_28_" class="st5" d="M181.6,71.3c4-16.9,10.3-29.8,18-39.5"/>
				<path id="XMLID_27_" class="st5" d="M192.3,74.1c0.6-8.9,3.7-17.2,8-24.2c4.3-7,10-12.6,15.8-16.4"/>
				<path id="XMLID_26_" class="st5" d="M200.6,76.8c-0.5,2.6,1.7-6.1,7.4-16.2c5.7-10.1,15.1-21.7,29.1-24.8"/>
				<path id="XMLID_25_" class="st5" d="M206.9,79.8c14.5-22.8,29.5-37.6,45.4-42"/>
				<path id="XMLID_24_" class="st5" d="M215.6,84.1c14.5-22.8,41.1-39.1,57-43.5"/>
				<path id="XMLID_23_" class="st5" d="M225.2,88.2c14.5-22.8,57.2-39.3,73.1-43.7"/>
				<path id="XMLID_22_" class="st5" d="M233.2,92c14.5-22.8,74.7-39,90.6-43.4"/>
				<path id="XMLID_21_" class="st5" d="M245.4,98.5c14.5-22.8,85.7-41.6,101.6-46"/>
				<path id="XMLID_20_" class="st5" d="M257.7,105.3c14.5-22.8,93.8-44.8,109.6-49.2"/>
				<path id="XMLID_19_" class="st5" d="M425,77.7c-46.8,11.2-98.8,28.1-132.2,50.6"/>
				<path id="XMLID_18_" class="st5" d="M439.8,85.4c-46.8,11.2-102.9,28.7-136.3,51.2"/>
			</g>
		</g>
	</g>
	<path id="XMLID_16_" onclick="side()" class="st6" d="M160,55.4c-10.3-2.4-24.7-3.8-45.3-3.6c-12.4,1.5-26.3,2.5-41.2,8.8
		c-13.9,2.6-28.4,11.2-41.5,26c-9.2,10.3-14.4,23-17.2,36.9C23,99.1,39,80.8,63.4,68.7C88.4,56.3,121.3,52.2,160,55.4z"/>
	<path id="XMLID_15_" onclick="side()" class="st7" d="M553.7,340.6l-6.1,1.2c-24.4-30.6-50.6-72-76.5-107.6l-28-36.1
		c-11-16.9-20.4-34.8-26.3-54.3c-7-24.3-16.7-44.8-32.4-57.3c-21.3-16.3-46-29.1-73.8-38.5c-38.2-12.8-76.7-24-115.7-32.5l9.4,0.3
		c116.3,25.4,181.9,52.5,203,76.9c13.6,10,23.9,33.2,32,59.6c4.6,11,10.4,21.4,17,31.4C492.2,233.1,523.9,286.5,553.7,340.6z"/>
	<line id="XMLID_14_" onclick="side()" class="st8" x1="6.6" y1="142.1" x2="116.3" y2="137.6"/>
	<path id="XMLID_13_" onclick="side()" class="st9" d="M191.7,62.8c-27.4,16.3-51.2,40.4-73.3,71.6c-13,19-21.9,43.1-22.5,75.1
		l-45.1,4.6c-16.2-11.5-30.3-29.2-38-49.8c-2.4-16-0.6-29.1,2.1-40.9c9.8-27.2,28.8-48.4,60.6-59.9C115.7,50.4,165,53.1,191.7,62.8z
		"/>
	<g id="XMLID_154_" onclick="side()">
		<line id="XMLID_12_" class="st8" x1="38.5" y1="204.1" x2="96.3" y2="200.4"/>
		<line id="XMLID_11_" class="st8" x1="27.9" y1="192.5" x2="97.5" y2="189.1"/>
		<line id="XMLID_10_" class="st8" x1="19.7" y1="180.4" x2="99.8" y2="176.9"/>
		<line id="XMLID_9_" class="st8" x1="13.3" y1="167.7" x2="103.5" y2="164"/>
		<line id="XMLID_8_" class="st8" x1="10.3" y1="154.9" x2="109" y2="150.6"/>
		<line id="XMLID_7_" class="st8" x1="11.9" y1="141.8" x2="116.3" y2="137.6"/>
		<polyline id="XMLID_6_" class="st8" points="16.4,116.3 69.9,113.6 136.6,110.9 		"/>
		<polyline id="XMLID_5_" class="st8" points="13.6,129.1 74.9,126.4 125.8,124.3 		"/>
		<path id="XMLID_4_" class="st8" d="M25.1,102.4c57.9-2.8,67.3-2.9,124-5.3"/>
		<path id="XMLID_3_" class="st8" d="M36.7,87.6c60.9-4.8,68.1-3.8,128-5.3"/>
		<path id="XMLID_2_" class="st8" d="M60.8,70c63.3-3.4,59.8-2.1,122.2-1.7"/>
	</g>
	<line id="XMLID_1_" onclick="side()" class="st8" x1="69.4" y1="61.2" x2="60.6" y2="44.9"/>
</g>
</svg>
